<svg width="64" height="64" viewBox="0 0 64 64" fill="none" xmlns="http://www.w3.org/2000/svg">
  <rect width="64" height="64" rx="8" fill="#1a1a1a"/>
  <circle cx="32" cy="28" r="16" fill="#00d4ff"/>
  <circle cx="26" cy="24" r="2" fill="#1a1a1a"/>
  <circle cx="38" cy="24" r="2" fill="#1a1a1a"/>
  <path d="M24 32C24 36.418 27.582 40 32 40C36.418 40 40 36.418 40 32" stroke="#1a1a1a" stroke-width="2" stroke-linecap="round"/>
  <rect x="8" y="46" width="48" height="12" rx="2" fill="#00d4ff"/>
  <rect x="12" y="50" width="8" height="2" rx="1" fill="#1a1a1a"/>
  <rect x="12" y="54" width="6" height="2" rx="1" fill="#1a1a1a"/>
  <rect x="44" y="50" width="8" height="2" rx="1" fill="#1a1a1a"/>
  <rect x="46" y="54" width="6" height="2" rx="1" fill="#1a1a1a"/>
  <path d="M20 18L24 22L28 18" stroke="#00d4ff" stroke-width="2" stroke-linecap="round" stroke-linejoin="round"/>
  <path d="M36 18L40 22L44 18" stroke="#00d4ff" stroke-width="2" stroke-linecap="round" stroke-linejoin="round"/>
</svg>