<svg width="400" height="300" viewBox="0 0 400 300" fill="none" xmlns="http://www.w3.org/2000/svg">
  <rect width="400" height="300" fill="#0a0a0a"/>
  <rect x="20" y="20" width="360" height="260" rx="12" fill="#1a1a1a" stroke="#00d4ff" stroke-width="2"/>
  
  <!-- Header -->
  <rect x="40" y="40" width="320" height="40" rx="6" fill="#00d4ff" fill-opacity="0.1"/>
  <text x="200" y="65" text-anchor="middle" fill="#00d4ff" font-family="Arial, sans-serif" font-size="16" font-weight="bold">Real-Time Face Recognition</text>
  
  <!-- Camera feed -->
  <rect x="50" y="100" width="160" height="120" rx="6" fill="#333" stroke="#00d4ff" stroke-width="1"/>
  <text x="130" y="120" text-anchor="middle" fill="#00d4ff" font-family="Arial, sans-serif" font-size="10">Live Camera Feed</text>
  
  <!-- Face detection rectangles -->
  <rect x="80" y="140" width="50" height="60" rx="4" fill="none" stroke="#00ff88" stroke-width="2"/>
  <rect x="130" y="150" width="40" height="50" rx="4" fill="none" stroke="#00ff88" stroke-width="2"/>
  
  <!-- Face details -->
  <circle cx="105" cy="160" r="2" fill="#00ff88"/>
  <circle cx="115" cy="160" r="2" fill="#00ff88"/>
  <path d="M105 175C105 178 107 180 110 180C113 180 115 178 115 175" stroke="#00ff88" stroke-width="1" fill="none"/>
  
  <circle cx="145" cy="165" r="1.5" fill="#00ff88"/>
  <circle cx="155" cy="165" r="1.5" fill="#00ff88"/>
  <path d="M145 180C145 182 147 184 150 184C153 184 155 182 155 180" stroke="#00ff88" stroke-width="1" fill="none"/>
  
  <!-- Recognition results -->
  <rect x="230" y="100" width="120" height="120" rx="6" fill="#333"/>
  <text x="290" y="120" text-anchor="middle" fill="#00d4ff" font-family="Arial, sans-serif" font-size="12">Recognition Results</text>
  
  <text x="240" y="140" fill="#00ff88" font-family="Arial, sans-serif" font-size="11">✓ John Smith</text>
  <text x="240" y="155" fill="#00ff88" font-family="Arial, sans-serif" font-size="11">Confidence: 97.3%</text>
  
  <text x="240" y="175" fill="#00ff88" font-family="Arial, sans-serif" font-size="11">✓ Jane Doe</text>
  <text x="240" y="190" fill="#00ff88" font-family="Arial, sans-serif" font-size="11">Confidence: 94.8%</text>
  
  <!-- Algorithm info -->
  <text x="240" y="210" fill="#00d4ff" font-family="Arial, sans-serif" font-size="10">Algorithm: LBPH + SVM</text>
  
  <!-- Status bar -->
  <rect x="50" y="240" width="300" height="30" rx="6" fill="#333"/>
  <text x="60" y="260" fill="#00ff88" font-family="Arial, sans-serif" font-size="11">Status: Active | Accuracy: 95% | Faces Detected: 2</text>
</svg>