<svg width="64" height="64" viewBox="0 0 64 64" fill="none" xmlns="http://www.w3.org/2000/svg">
  <rect width="64" height="64" rx="8" fill="#1a1a1a"/>
  <path d="M32 8C18.746 8 8 18.746 8 32C8 42.588 14.267 51.727 23.02 55.154C24.02 55.338 24.406 54.737 24.406 54.22C24.406 53.758 24.393 52.645 24.385 51.194C18.485 52.395 17.313 48.346 17.313 48.346C16.401 45.731 15.069 45.133 15.069 45.133C13.243 43.889 15.221 43.917 15.221 43.917C17.253 44.061 18.309 45.992 18.309 45.992C20.109 49.113 22.978 48.221 24.439 47.719C24.621 46.406 25.168 45.518 25.767 45.027C21.347 44.53 16.699 42.862 16.699 34.359C16.699 31.953 17.479 29.993 18.353 28.452C18.147 27.956 17.438 25.939 18.55 23.126C18.55 23.126 20.243 22.605 24.365 25.274C25.984 24.834 27.704 24.614 29.42 24.606C31.136 24.614 32.857 24.834 34.48 25.274C38.598 22.605 40.288 23.126 40.288 23.126C41.403 25.939 40.694 27.956 40.488 28.452C41.366 29.993 42.141 31.953 42.141 34.359C42.141 42.883 37.485 44.525 33.055 45.012C33.804 45.66 34.454 46.933 34.454 48.872C34.454 51.696 34.43 53.977 34.43 54.22C34.43 54.743 34.81 55.349 35.825 55.151C44.569 51.72 50.83 42.584 50.83 32C50.83 18.746 40.084 8 26.83 8H32Z" fill="#00d4ff"/>
  <rect x="12" y="16" width="8" height="6" rx="1" fill="#00d4ff"/>
  <rect x="12" y="24" width="12" height="2" rx="1" fill="#00d4ff"/>
  <rect x="12" y="28" width="10" height="2" rx="1" fill="#00d4ff"/>
  <rect x="44" y="16" width="8" height="6" rx="1" fill="#00d4ff"/>
  <rect x="40" y="24" width="12" height="2" rx="1" fill="#00d4ff"/>
  <rect x="42" y="28" width="10" height="2" rx="1" fill="#00d4ff"/>
</svg>