<svg width="400" height="300" viewBox="0 0 400 300" fill="none" xmlns="http://www.w3.org/2000/svg">
  <rect width="400" height="300" fill="#0a0a0a"/>
  <rect x="20" y="20" width="360" height="260" rx="12" fill="#1a1a1a" stroke="#00d4ff" stroke-width="2"/>
  
  <!-- Header -->
  <rect x="40" y="40" width="320" height="40" rx="6" fill="#00d4ff" fill-opacity="0.1"/>
  <text x="200" y="65" text-anchor="middle" fill="#00d4ff" font-family="Arial, sans-serif" font-size="16" font-weight="bold">House Price Prediction Model</text>
  
  <!-- House icon -->
  <path d="M200 90L170 110V150H230V110L200 90Z" fill="#00d4ff"/>
  <rect x="190" y="130" width="8" height="15" fill="#1a1a1a"/>
  <rect x="204" y="125" width="6" height="6" fill="#1a1a1a"/>
  <rect x="185" y="125" width="6" height="6" fill="#1a1a1a"/>
  
  <!-- Price prediction graph -->
  <rect x="50" y="170" width="300" height="80" rx="6" fill="#333"/>
  <text x="200" y="190" text-anchor="middle" fill="#00d4ff" font-family="Arial, sans-serif" font-size="12">Price Prediction Accuracy</text>
  
  <!-- Graph line -->
  <path d="M70 230L100 210L130 220L160 200L190 205L220 195L250 190L280 200L310 195L330 185" stroke="#00ff88" stroke-width="3" fill="none"/>
  
  <!-- Data points -->
  <circle cx="70" cy="230" r="3" fill="#00ff88"/>
  <circle cx="100" cy="210" r="3" fill="#00ff88"/>
  <circle cx="130" cy="220" r="3" fill="#00ff88"/>
  <circle cx="160" cy="200" r="3" fill="#00ff88"/>
  <circle cx="190" cy="205" r="3" fill="#00ff88"/>
  <circle cx="220" cy="195" r="3" fill="#00ff88"/>
  <circle cx="250" cy="190" r="3" fill="#00ff88"/>
  <circle cx="280" cy="200" r="3" fill="#00ff88"/>
  <circle cx="310" cy="195" r="3" fill="#00ff88"/>
  <circle cx="330" cy="185" r="3" fill="#00ff88"/>
  
  <!-- Metrics -->
  <text x="60" y="270" fill="#00ff88" font-family="Arial, sans-serif" font-size="11">RMSE: 0.0103</text>
  <text x="160" y="270" fill="#00ff88" font-family="Arial, sans-serif" font-size="11">Accuracy: 94.7%</text>
  <text x="280" y="270" fill="#00ff88" font-family="Arial, sans-serif" font-size="11">LightGBM Model</text>
</svg>