<svg width="64" height="64" viewBox="0 0 64 64" fill="none" xmlns="http://www.w3.org/2000/svg">
  <rect width="64" height="64" rx="8" fill="#1a1a1a"/>
  <path d="M32 12C35.314 12 38 14.686 38 18V22H42C43.105 22 44 22.895 44 24V48C44 49.105 43.105 50 42 50H22C20.895 50 20 49.105 20 48V24C20 22.895 20.895 22 22 22H26V18C26 14.686 28.686 12 32 12ZM36 22V18C36 15.791 34.209 14 32 14C29.791 14 28 15.791 28 18V22H36Z" fill="#00d4ff"/>
  <path d="M30 32L34 36L30 40" stroke="#00d4ff" stroke-width="2" stroke-linecap="round" stroke-linejoin="round"/>
  <circle cx="32" cy="28" r="2" fill="#00d4ff"/>
  <circle cx="28" cy="38" r="1.5" fill="#00d4ff"/>
  <circle cx="36" cy="38" r="1.5" fill="#00d4ff"/>
  <path d="M24 26H40" stroke="#00d4ff" stroke-width="1" stroke-linecap="round"/>
  <path d="M24 44H40" stroke="#00d4ff" stroke-width="1" stroke-linecap="round"/>
</svg>